<svg width="18" height="18" viewBox="0 0 18 18" fill="none" xmlns="http://www.w3.org/2000/svg">
<path d="M17.1802 16.4447L12.5741 11.8386C13.5897 10.6537 14.1789 9.12046 14.1789 7.43752C14.1789 3.69729 11.1473 0.666687 7.40805 0.666687C3.66879 0.666687 0.666504 3.69826 0.666504 7.43752C0.666504 11.1768 3.69776 14.2084 7.40805 14.2084C9.09034 14.2084 10.6258 13.5912 11.8091 12.5759L16.4152 17.182C16.5454 17.2813 16.6789 17.3334 16.8123 17.3334C16.9458 17.3334 17.0789 17.2825 17.1805 17.1808C17.3853 16.9785 17.3853 16.6465 17.1802 16.4447ZM7.43734 13.1667C4.25049 13.1667 1.70818 10.5951 1.70818 7.43752C1.70818 4.27997 4.25049 1.70835 7.43734 1.70835C10.6242 1.70835 13.1665 4.25067 13.1665 7.43752C13.1665 10.6244 10.5949 13.1667 7.43734 13.1667Z" fill="#88898E"/>
</svg>
